{"title":"BBC.Sharks.2002.XviD.DVDRip.Eng.Rus","uid":10759519,"size":2341836040,"categoryP":"video","categoryS":"tv_shows","magnet":"?xt=urn:btih:e37a85ac83585e9711d742d3ef0e36d48d781ee2&amp;dn=BBC.Sharks.2002.XviD.DVDRip.Eng.Rus&amp;tr=udp%3A%2F%2Ftracker.openbittorrent.com%3A80&amp;tr=udp%3A%2F%2Fopen.demonii.com%3A1337&amp;tr=udp%3A%2F%2Ftracker.coppersurfer.tk%3A6969&amp;tr=udp%3A%2F%2Fexodus.desync.com%3A6969","seeders":1,"leechers":0,"uploader":"niif111","files":2,"time":1407962271,"description":"BBC.Sharks.2002.XviD.DVDRip.Eng.Rus1.Swimming.With.Sharks.2002.XviD.DVDRip.Eng.Rus.avi\nFormat                                   : AVI\nFormat/Info                              : Audio Video Interleave\nFormat profile                           : OpenDML\nFile size                                : 1.11 GiB\nDuration                                 : 48mn 20s\nOverall bit rate                         : 3 289 Kbps\nWriting application                      : XviD4PSP 7.0 / 55.33.100\nComment                                  : AVI &gt; AVI / MPEG4 &gt; XVID VBR-2P 2500kbps HQ / AC3 &gt; COPY  / AC3 &gt; COPY\n\nVideo\nID                                       : 0\nFormat                                   : MPEG-4 Visual\nFormat profile                           : Advanced Simple@L5\nFormat settings, BVOP                    : 1\nFormat settings, QPel                    : No\nFormat settings, GMC                     : No warppoints\nFormat settings, Matrix                  : Default (H.263)\nCodec ID                                 : XVID\nCodec ID/Hint                            : XviD\nDuration                                 : 48mn 20s\nBit rate                                 : 2 500 Kbps\nWidth                                    : 720 pixels\nHeight                                   : 576 pixels\nDisplay aspect ratio                     : 4:3\nFrame rate                               : 25.000 fps\nStandard                                 : PAL\nColor space                              : YUV\nChroma subsampling                       : 4:2:0\nBit depth                                : 8 bits\nScan type                                : Interlaced\nScan order                               : Top Field First\nCompression mode                         : Lossy\nBits/(Pixel*Frame)                       : 0.241\nStream size                              : 864 MiB (76%)\nWriting library                          : XviD 64\n\nAudio #1\nID                                       : 1\nFormat                                   : AC-3\nFormat/Info                              : Audio Coding 3\nMode extension                           : CM (complete main)\nFormat settings, Endianness              : Big\nCodec ID                                 : 2000\nDuration                                 : 48mn 20s\nBit rate mode                            : Constant\nBit rate                                 : 384 Kbps\nChannel(s)                               : 6 channels\nChannel positions                        : Front: L C R, Side: L R, LFE\nSampling rate                            : 48.0 KHz\nBit depth                                : 16 bits\nCompression mode                         : Lossy\nStream size                              : 133 MiB (12%)\nAlignment                                : Aligned on interleaves\nInterleave, duration                     : 32 ms (0.80 video frame)\n\nAudio #2\nID                                       : 2\nFormat                                   : AC-3\nFormat/Info                              : Audio Coding 3\nMode extension                           : CM (complete main)\nFormat settings, Endianness              : Big\nCodec ID                                 : 2000\nDuration                                 : 48mn 20s\nBit rate mode                            : Constant\nBit rate                                 : 384 Kbps\nChannel(s)                               : 6 channels\nChannel positions                        : Front: L C R, Side: L R, LFE\nSampling rate                            : 48.0 KHz\nBit depth                                : 16 bits\nCompression mode                         : Lossy\nStream size                              : 133 MiB (12%)\nAlignment                                : Aligned on interleaves\nInterleave, duration                     : 32 ms (0.80 video frame)\n","torrent":{"xt":"urn:btih:e37a85ac83585e9711d742d3ef0e36d48d781ee2","amp;dn":"BBC.Sharks.2002.XviD.DVDRip.Eng.Rus","amp;tr":["udp%3A%2F%2Ftracker.openbittorrent.com%3A80","udp%3A%2F%2Fopen.demonii.com%3A1337","udp%3A%2F%2Ftracker.coppersurfer.tk%3A6969","udp%3A%2F%2Fexodus.desync.com%3A6969"],"infoHash":"e37a85ac83585e9711d742d3ef0e36d48d781ee2","infoHashBuffer":{"type":"Buffer","data":[227,122,133,172,131,88,94,151,17,215,66,211,239,14,54,212,141,120,30,226]},"announce":[],"urlList":[]}}